<svg width="106.32000122070312px" height="102.839990234375px" xmlns="http://www.w3.org/2000/svg" viewBox="196.83999938964843 23.580004882812503 106.32000122070312 102.839990234375" style="background: rgba(255, 255, 255, 0);" preserveAspectRatio="xMidYMid"><defs><filter id="editing-vr"><feFlood flood-color="#001e85" flood-opacity="0.7" result="c1"></feFlood><feFlood flood-color="#ffb428" flood-opacity="0.7" result="c3"></feFlood><feComposite operator="in" in="c1" in2="SourceAlpha" result="text-c1"></feComposite><feComposite operator="in" in="c3" in2="SourceAlpha" result="text-c3"></feComposite><feOffset in="text-c1" dx="3" dy="1" result="text1"></feOffset><feOffset in="text-c3" dx="-3" dy="-1" result="text3"></feOffset><feBlend in="SourceGraphic" in2="text1" mode="multiply" result="text4"></feBlend><feBlend in="text4" in2="text3" mode="multiply"></feBlend></filter></defs><g filter="url(#editing-vr)"><g transform="translate(217.1288185119629, 91.44000244140625)"><path d="M6.72-2.08L6.72-2.08L6.72-2.08Q7.32-3.40 8.16-5.48L8.16-5.48L8.16-5.48Q9-7.56 9.92-9.98L9.92-9.98L9.92-9.98Q10.84-12.40 11.80-14.94L11.80-14.94L11.80-14.94Q12.76-17.48 13.60-19.76L13.60-19.76L13.60-19.76Q14.44-22.04 15.06-23.84L15.06-23.84L15.06-23.84Q15.68-25.64 15.96-26.60L15.96-26.60L15.96-26.60Q13.44-25.56 11.64-23.44L11.64-23.44L11.64-23.44Q9.84-21.32 8.92-18.12L8.92-18.12L8.92-18.12Q8-18.44 7.24-19.26L7.24-19.26L7.24-19.26Q6.48-20.08 6.24-21.32L6.24-21.32L6.24-21.32Q6.64-23.16 7.74-24.68L7.74-24.68L7.74-24.68Q8.84-26.20 10.52-27.28L10.52-27.28L10.52-27.28Q12.20-28.36 14.40-28.94L14.40-28.94L14.40-28.94Q16.60-29.52 19.12-29.52L19.12-29.52L19.12-29.52Q22.32-29.52 25-28.58L25-28.58L25-28.58Q27.68-27.64 29.60-25.96L29.60-25.96L29.60-25.96Q31.52-24.28 32.60-21.92L32.60-21.92L32.60-21.92Q33.68-19.56 33.68-16.68L33.68-16.68L33.68-16.68Q33.68-12.76 32.24-9.20L32.24-9.20L32.24-9.20Q30.80-5.64 28.34-2.92L28.34-2.92L28.34-2.92Q25.88-0.20 22.64 1.42L22.64 1.42L22.64 1.42Q19.40 3.04 15.84 3.04L15.84 3.04L15.84 3.04Q12.56 3.04 10.22 1.74L10.22 1.74L10.22 1.74Q7.88 0.44 6.72-2.08ZM20.84-27.52L20.84-27.52L20.84-27.52Q18.84-27.52 17.04-26.96L17.04-26.96L17.04-26.96Q18.80-26.32 19.96-25.62L19.96-25.62L19.96-25.62Q21.12-24.92 21.56-24.52L21.56-24.52L21.56-24.52Q21.24-24.08 20.62-22.96L20.62-22.96L20.62-22.96Q20-21.84 19.18-20.24L19.18-20.24L19.18-20.24Q18.36-18.64 17.44-16.74L17.44-16.74L17.44-16.74Q16.52-14.84 15.64-12.84L15.64-12.84L15.64-12.84Q13.36-7.76 12.34-4.84L12.34-4.84L12.34-4.84Q11.32-1.92 11.32-0.80L11.32-0.80L11.32-0.80Q11.88-0.60 12.68-0.52L12.68-0.52L12.68-0.52Q13.48-0.44 14.40-0.44L14.40-0.44L14.40-0.44Q17.64-0.44 20.54-1.94L20.54-1.94L20.54-1.94Q23.44-3.44 25.62-5.96L25.62-5.96L25.62-5.96Q27.80-8.48 29.06-11.82L29.06-11.82L29.06-11.82Q30.32-15.16 30.32-18.84L30.32-18.84L30.32-18.84Q30.32-22.96 27.76-25.24L27.76-25.24L27.76-25.24Q25.20-27.52 20.84-27.52ZM41-24.24L41-24.24L41-24.24Q39.40-24.24 38.54-25.14L38.54-25.14L38.54-25.14Q37.68-26.04 37.68-27.32L37.68-27.32L37.68-27.32Q37.68-27.64 37.78-28.08L37.78-28.08L37.78-28.08Q37.88-28.52 38.04-28.84L38.04-28.84L38.04-28.84Q38.56-28.60 39.58-28.50L39.58-28.50L39.58-28.50Q40.60-28.40 41.96-28.40L41.96-28.40L41.96-28.40Q44-28.40 46.58-28.58L46.58-28.58L46.58-28.58Q49.16-28.76 51.52-28.96L51.52-28.96L51.52-28.96Q53.88-29.16 55.68-29.34L55.68-29.34L55.68-29.34Q57.48-29.52 58-29.52L58-29.52L58-29.52Q59.48-29.52 60.14-28.42L60.14-28.42L60.14-28.42Q60.80-27.32 61.12-25.48L61.12-25.48L61.12-25.48Q60.08-25.56 59.06-25.62L59.06-25.62L59.06-25.62Q58.04-25.68 57.32-25.68L57.32-25.68L57.32-25.68Q56.04-25.68 54.74-25.60L54.74-25.60L54.74-25.60Q53.44-25.52 52.12-25.36L52.12-25.36L52.12-25.36Q51.56-24.20 50.88-22.62L50.88-22.62L50.88-22.62Q50.20-21.04 49.54-19.32L49.54-19.32L49.54-19.32Q48.88-17.60 48.28-15.90L48.28-15.90L48.28-15.90Q47.68-14.20 47.24-12.84L47.24-12.84L47.24-12.84Q46.36-10.20 45.70-7.96L45.70-7.96L45.70-7.96Q45.04-5.72 44.54-3.78L44.54-3.78L44.54-3.78Q44.04-1.84 43.68-0.08L43.68-0.08L43.68-0.08Q43.32 1.68 43.04 3.36L43.04 3.36L43.04 3.36Q40.36 2.96 38.56 0L38.56 0L38.56 0Q38.88-1.24 39.34-2.70L39.34-2.70L39.34-2.70Q39.80-4.16 40.42-6.02L40.42-6.02L40.42-6.02Q41.04-7.88 41.88-10.24L41.88-10.24L41.88-10.24Q42.72-12.60 43.80-15.60L43.80-15.60L43.80-15.60Q44.20-16.72 44.64-17.94L44.64-17.94L44.64-17.94Q45.08-19.16 45.50-20.36L45.50-20.36L45.50-20.36Q45.92-21.56 46.26-22.68L46.26-22.68L46.26-22.68Q46.60-23.80 46.84-24.72L46.84-24.72L46.84-24.72Q45.16-24.52 43.66-24.38L43.66-24.38L43.66-24.38Q42.16-24.24 41-24.24ZM55.44 1.52L55.44 1.52L55.44 1.52Q54.80 1.44 54.10 0.98L54.10 0.98L54.10 0.98Q53.40 0.52 53.20-0.04L53.20-0.04L53.20-0.04Q53.20-0.52 53.34-1.28L53.34-1.28L53.34-1.28Q53.48-2.04 53.68-2.82L53.68-2.82L53.68-2.82Q53.88-3.60 54.08-4.30L54.08-4.30L54.08-4.30Q54.28-5 54.36-5.36L54.36-5.36L54.36-5.36Q54.84-5.36 55.58-5.12L55.58-5.12L55.58-5.12Q56.32-4.88 57.10-4.46L57.10-4.46L57.10-4.46Q57.88-4.04 58.58-3.50L58.58-3.50L58.58-3.50Q59.28-2.96 59.64-2.40L59.64-2.40L59.64-2.40Q59.28-1.60 58.72-0.88L58.72-0.88L58.72-0.88Q58.16-0.16 57.54 0.38L57.54 0.38L57.54 0.38Q56.92 0.92 56.36 1.22L56.36 1.22L56.36 1.22Q55.80 1.52 55.44 1.52Z" fill="#000000"></path></g></g><style>text {
  font-size: 64px;
  font-family: Arial Black;
  dominant-baseline: central;
  text-anchor: middle;
}</style></svg>